<svg width="4" height="10" viewBox="0 0 4 10" fill="none" xmlns="http://www.w3.org/2000/svg">
<path d="M0.70942 4.27656L0.698217 4.18814C0.652344 4.20676 0.606058 4.2259 0.559336 4.24559L0.54999 4.28799C0.602804 4.28051 0.656043 4.27668 0.70942 4.27656ZM0.70942 4.27656L0.709207 4.18368L1.34956 4.91247C1.35781 4.82386 1.35018 4.73425 1.32721 4.64905C1.30425 4.56384 1.26653 4.48477 1.21601 4.41657C1.06704 4.30358 0.887491 4.254 0.70942 4.27656ZM1.79759 5.43775C1.82868 5.27293 1.84592 5.10545 1.84921 4.93745C1.85986 4.7969 1.84667 4.65502 1.80998 4.51891C1.77154 4.37631 1.70735 4.23987 1.61778 4.11895L1.57518 4.06144L1.51816 4.01819C1.47942 3.98881 1.43919 3.96184 1.3977 3.93741C1.54037 3.90163 1.68554 3.88279 1.83106 3.88103L1.84573 3.88085L1.86036 3.87981C2.09555 3.86314 2.33702 3.94024 2.54195 4.1131C2.60438 4.17697 2.6578 4.25879 2.69532 4.35517C2.7349 4.45686 2.75482 4.56959 2.75203 4.68449L2.75189 4.68449V4.69662C2.75189 4.75106 2.74375 4.86916 2.72763 5.0795C2.71413 5.23943 2.68658 5.39704 2.64551 5.54987L2.64547 5.54986L2.64386 5.55619L2.17359 7.40194C2.17357 7.40202 2.17355 7.40209 2.17353 7.40217C2.12719 7.58305 2.08902 7.76646 2.05926 7.95169C2.03223 8.10944 2.015 8.26882 2.00746 8.42871C1.99309 8.58032 2.00804 8.73435 2.05231 8.88079C2.09833 9.03303 2.17582 9.17625 2.2829 9.2977L2.32453 9.34491L2.37656 9.38034C2.41388 9.40574 2.4523 9.42913 2.49167 9.45043C2.35192 9.48444 2.20959 9.49995 2.06739 9.49684L2.04488 9.49635L2.02242 9.49788C1.77948 9.51446 1.53036 9.43322 1.32002 9.25243C1.25634 9.19142 1.20116 9.11112 1.16226 9.01479C1.12211 8.91537 1.10155 8.80456 1.10388 8.69145L1.10394 8.69145L1.10398 8.68357C1.10461 8.55189 1.11279 8.42026 1.12834 8.28949C1.14658 8.15583 1.17431 7.9978 1.21211 7.81725L1.68239 5.97542L1.68243 5.97544L1.68394 5.96916C1.72911 5.78226 1.7672 5.60673 1.79759 5.43775ZM3.30696 0.687116L3.31291 0.693337L3.31907 0.69935C3.37118 0.750223 3.41704 0.817585 3.4499 0.899373C3.48278 0.981244 3.50038 1.07206 3.49997 1.16488L3.49994 1.16488L3.49998 1.17084C3.50067 1.26284 3.48337 1.35266 3.45088 1.43326C3.41841 1.51379 3.37292 1.57997 3.32135 1.62968L3.3152 1.63561L3.30926 1.64174C3.18245 1.77262 3.02953 1.83142 2.88507 1.82817L2.87427 1.82793L2.86347 1.82815C2.71618 1.83121 2.56098 1.77165 2.43161 1.63966L2.42664 1.6346L2.42154 1.62968C2.36963 1.57964 2.32404 1.51334 2.29176 1.43326C2.25947 1.35316 2.24221 1.26338 2.24291 1.17084L2.24295 1.17084L2.24292 1.16488C2.24251 1.07151 2.26006 0.980746 2.29274 0.899373C2.32542 0.81804 2.37138 0.750548 2.42382 0.69935L2.42894 0.694353L2.43391 0.689213C2.56223 0.55656 2.7167 0.496972 2.86293 0.500159L2.87427 0.500406L2.8856 0.500139C3.029 0.496764 3.1812 0.555584 3.30696 0.687116Z" fill="#E5E5E5" stroke="#E5E5E5"/>
</svg>
