<svg version="1.1" xmlns="http://www.w3.org/2000/svg" x="0px" y="0px" viewBox="0 0 20 20" style="enable-background:new 0 0 20 20;" xml:space="preserve"><style type="text/css">.st0{fill:#070404;}</style><path class="st0" d="M9.9,11.2c-3.1,0-5.6-2.5-5.6-5.6C4.4,2.5,6.9,0,9.9,0c3.1,0,5.6,2.5,5.6,5.6C15.5,8.7,13,11.2,9.9,11.2z M9.9,1.4c-2.3,0-4.2,1.9-4.2,4.2c0,2.3,1.9,4.2,4.2,4.2s4.2-1.9,4.2-4.2C14.1,3.3,12.2,1.4,9.9,1.4z"/><path class="st0" d="M1.9,20H0.5c0-0.9,0.2-1.7,0.5-2.5L2.3,18C2.1,18.7,1.9,19.3,1.9,20z"/><path class="st0" d="M19.5,20h-1.4c0-3.4-3.6-6.2-8.1-6.2c-3.5,0-6.6,1.7-7.7,4.2L1,17.5c1.3-3,4.9-5,9-5 C15.3,12.4,19.5,15.8,19.5,20z"/></svg>