<svg xmlns="http://www.w3.org/2000/svg" xmlns:xlink="http://www.w3.org/1999/xlink" width="24" height="24" viewBox="0 0 24 24">
    <defs>
        <path id="a" d="M9 9a4 4 0 1 1 0-8 4 4 0 0 1 0 8zm0-2a2 2 0 1 0 0-4 2 2 0 0 0 0 4zM2 17H0v-1a5 5 0 0 1 5-5h8a5 5 0 0 1 5 5v1h-2v-1a3 3 0 0 0-3-3H5a3 3 0 0 0-3 3v1zm-2 0h2v1H0v-1zm16 0h2v1h-2v-1z"/>
    </defs>
    <g fill="none" fill-rule="evenodd" transform="translate(3 3)">
        <mask id="b" fill="#fff">
            <use xlink:href="#a"/>
        </mask>
        <use fill="#979797" fill-rule="nonzero" xlink:href="#a"/>
        <g fill="#6f6f6f" mask="url(#b)">
            <path d="M-3-3h24v24H-3z"/>
        </g>
    </g>
</svg>
