<?xml version="1.0" encoding="utf-8"?>
<!-- Generator: Adobe Illustrator 21.1.0, SVG Export Plug-In . SVG Version: 6.00 Build 0)  -->
<svg version="1.1" id="Layer_1" xmlns="http://www.w3.org/2000/svg" xmlns:xlink="http://www.w3.org/1999/xlink" x="0px" y="0px"
	 viewBox="0 0 20 20" style="enable-background:new 0 0 20 20;" xml:space="preserve">
<style type="text/css">
	.st0{fill:#070404;}
</style>
<path class="st0" d="M18.8,20c-0.3,0-0.6-0.1-0.8-0.3L0.4,2c-0.5-0.5-0.5-1.2,0-1.7c0.5-0.5,1.2-0.5,1.7,0L19.6,18
	c0.5,0.5,0.5,1.2,0,1.7C19.4,19.9,19.1,20,18.8,20z"/>
<path class="st0" d="M1.2,20c-0.3,0-0.6-0.1-0.8-0.3c-0.5-0.5-0.5-1.2,0-1.7L18,0.4c0.5-0.5,1.2-0.5,1.7,0c0.5,0.5,0.5,1.2,0,1.7
	L2,19.6C1.8,19.9,1.5,20,1.2,20z"/>
</svg>
