<svg version="1.1" xmlns="http://www.w3.org/2000/svg" x="0px" y="0px" viewBox="0 0 27 20" style="enable-background:new 0 0 27 20;" xml:space="preserve">
<style type="text/css">.st0{fill:#070404;}</style>
<path class="st0" d="M22.1,14.9H9.5c-0.5,0-0.9-0.3-1-0.8L5.7,2H0V0h6.4c0.5,0,0.9,0.3,1,0.8L10.3,13h11.1l2.9-11h-8.9V0h10.2
	c0.3,0,0.6,0.1,0.8,0.4c0.2,0.2,0.3,0.6,0.2,0.9l-3.5,13C22.9,14.6,22.5,14.9,22.1,14.9z"/>
<path class="st0" d="M11,20c-0.8,0-1.5-0.7-1.5-1.5S10.1,17,11,17s1.5,0.7,1.5,1.5S11.8,20,11,20z M11,18c-0.3,0-0.5,0.2-0.5,0.5
	S10.7,19,11,19c0.3,0,0.5-0.2,0.5-0.5S11.2,18,11,18z"/>
<path class="st0" d="M20.4,20c-0.8,0-1.5-0.7-1.5-1.5s0.7-1.5,1.5-1.5s1.5,0.7,1.5,1.5S21.2,20,20.4,20z M20.4,18
	c-0.3,0-0.5,0.2-0.5,0.5s0.2,0.5,0.5,0.5c0.3,0,0.5-0.2,0.5-0.5S20.7,18,20.4,18z"/>
</svg>