<svg version="1.1" xmlns="http://www.w3.org/2000/svg" x="0px" y="0px" viewBox="0 0 20 20" style="enable-background:new 0 0 20 20;" xml:space="preserve"><style type="text/css">.st0{fill:#070404;}</style><path class="st0" d="M8.7,16.9c-4.6,0-8.4-3.8-8.4-8.4S4,0,8.7,0c4.6,0,8.4,3.8,8.4,8.4S13.3,16.9,8.7,16.9z M8.7,1.8 c-3.6,0-6.6,2.9-6.6,6.6S5.1,15,8.7,15s6.6-3,6.6-6.6C15.3,4.8,12.3,1.8,8.7,1.8z"/><path class="st0" d="M18.8,20c-0.2,0-0.5-0.1-0.7-0.3l-5.1-5.1c-0.4-0.4-0.4-0.9,0-1.3c0.4-0.4,0.9-0.4,1.3,0l5.1,5.1 c0.4,0.4,0.4,0.9,0,1.3C19.3,19.9,19.1,20,18.8,20z"/></svg>