<svg width="40" height="40" viewBox="0 0 40 40" fill="none" xmlns="http://www.w3.org/2000/svg">
<path fill-rule="evenodd" clip-rule="evenodd" d="M20 0C8.9543 0 0 8.9543 0 20C0 31.0457 8.9543 40 20 40C31.0457 40 40 31.0457 40 20C40 8.9543 31.0457 0 20 0ZM20 2.4C10.2798 2.4 2.4 10.2798 2.4 20C2.4 29.7202 10.2798 37.6 20 37.6C29.7202 37.6 37.6 29.7202 37.6 20C37.6 10.2798 29.7202 2.4 20 2.4ZM28.7611 27.6077C28.7761 27.526 28.7872 27.443 28.8 27.361V12.6389C28.7877 12.5583 28.7771 12.4774 28.7621 12.397C28.608 11.5724 27.9574 10.9324 27.1586 10.8181C27.1254 10.8137 27.093 10.806 27.0603 10.8H12.9397C12.8545 10.816 12.7688 10.8281 12.6849 10.8481C11.9051 11.0338 11.3282 11.6903 11.2171 12.5163C11.2126 12.5507 11.2058 12.5848 11.2 12.6192V27.3815C11.2161 27.4751 11.2289 27.5694 11.249 27.6624C11.4214 28.4594 12.0722 29.0773 12.8464 29.1813C12.8839 29.1861 12.9216 29.1937 12.959 29.2H27.041C27.1324 29.1837 27.2242 29.1703 27.3146 29.1498C28.0333 28.9904 28.6206 28.3635 28.7611 27.6077ZM13.1043 26.4791C13.1043 26.8708 13.4287 27.2076 13.8033 27.2076C17.9335 27.2079 22.0635 27.2079 26.1936 27.2076C26.5718 27.2076 26.8945 26.8714 26.8945 26.4768C26.8947 23.757 26.8945 21.0374 26.8945 18.3179V18.2614H25.2144C25.4516 19.054 25.5245 19.8602 25.4315 20.682C25.338 21.504 25.0847 22.269 24.6721 22.9754C24.2592 23.6826 23.724 24.2685 23.0686 24.7348C21.3699 25.9443 19.1334 26.0507 17.3309 24.993C16.4198 24.4589 15.7043 23.7142 15.2055 22.7545C14.4615 21.3225 14.3426 19.8195 14.7791 18.2601C14.2217 18.2606 13.6666 18.2606 13.104 18.2606V18.3103C13.104 21.0332 13.1038 23.7562 13.1043 26.4791ZM19.9182 23.7265C21.9109 23.7712 23.5227 22.1066 23.5647 20.0822C23.6076 17.9945 21.9969 16.2701 20.0001 16.2714C18.0481 16.2701 16.4612 17.912 16.4338 19.9435C16.4057 22.0297 18.0031 23.6834 19.9182 23.7265ZM26.8942 14.7853C26.8945 14.2044 26.8945 13.6233 26.8942 13.0425C26.8942 12.6258 26.5789 12.2943 26.1808 12.294C25.6267 12.2938 25.0726 12.2935 24.5183 12.294C24.1213 12.2945 23.8049 12.6269 23.8046 13.0435C23.8044 13.6194 23.8029 14.1952 23.8066 14.7713C23.8071 14.8572 23.8227 14.9466 23.8489 15.028C23.9484 15.3346 24.217 15.5227 24.5459 15.5243C24.8133 15.5248 25.0807 15.524 25.3483 15.524C25.6378 15.5206 25.9283 15.5264 26.218 15.519C26.5907 15.5093 26.8942 15.1754 26.8942 14.7853Z" fill="black"/>
</svg>
