<svg xmlns="http://www.w3.org/2000/svg" width="96" height="96" viewBox="0 0 96 96">
    <path d="M35.053 8.002L60.28 8C82.693 8 88 13.307 88 35.72v24.56C88 82.692 82.693 88 60.28 88H35.72C13.532 88 8.109 82.799 8.003 60.947L8 35.72C8 13.53 13.201 8.108 35.053 8zm-5.769 25.347h-5.871c-1.629 0-1.952.731-1.975 1.54l-.001.098c0 1.504 1.925 9.004 8.923 18.97l.28.394c4.798 6.945 11.63 10.67 17.783 10.67l.51-.005c3.259-.076 3.668-.908 3.668-2.252v-5.25l.006-.355c.047-1.325.392-1.6 1.39-1.62l.129-.002c.846 0 2.37.452 5.815 3.783 3.952 3.952 4.63 5.758 6.831 5.758h5.815c1.694 0 2.484-.847 2.033-2.484-.49-1.579-2.293-3.84-4.648-6.53l-.264-.301c-1.355-1.58-3.388-3.331-4.009-4.178-.846-1.13-.62-1.58 0-2.597l.015-.028c.36-.584 7.065-10.126 7.776-13.409.396-1.242 0-2.145-1.75-2.145h-5.815c-1.398 0-2.079.717-2.482 1.517l-.096.21c-.36.847-3.229 7.444-7.132 11.823l-.352.347c-1.117 1.086-1.691 1.46-2.358 1.46-.396 0-.904-.452-.904-1.695V35.495c0-1.468-.451-2.146-1.693-2.146H41.76c-.903 0-1.467.678-1.467 1.355 0 1.412 2.088 1.75 2.314 5.702v8.582c0 1.863-.338 2.202-1.072 2.202-1.916 0-6.487-6.848-9.388-14.83l-.267-.752c-.564-1.638-1.129-2.259-2.597-2.259z"/>
</svg>
