<svg xmlns="http://www.w3.org/2000/svg" width="96" height="96" viewBox="0 0 96 96">
    <path d="M47.005 34.49c5.378-.364 16.78-6.378 21.819-.505 2.219 2.591 1.37 7.233-.003 10.814l.46.248.932.481c5.926 2.998 12.306 5.157 11.15 14.597-.3 2.443-1.773 5.704-3.26 7.786-10.585 14.844-42.517 21.085-62.448 9.79l-.804-.462-.543-.322c-6.241-3.757-12.19-9.275-11.2-19.566.904-9.323 7.062-16.582 13.205-22.77l.341-.342c5.959-5.97 12.256-10.659 20.817-12.815 9.296-2.34 12.032 5.418 9.534 13.065zm-9.033 8.554c-6.76.556-11.307 1.984-16.053 4.775l-.544.327c-3.743 2.297-7.912 5.914-8.99 11.227C9.85 71.908 23.457 77.798 33.453 78.474c11.553.76 23.11-3.323 28.597-9.56 2.007-2.28 4.023-5.752 4.011-9.79-.026-12.484-15.73-17.097-28.089-16.08zm12.851 14.86c5.333 16.195-22.452 23.728-27.533 9.799-3.4-9.307 4.757-16.71 13.266-17.606 7.262-.753 12.669 2.966 14.267 7.806zM31.8 60.923c-5.923 1.391-4.777 9.86 1.753 8.301 4.671-1.118 5.3-9.957-1.753-8.3zm6.258-.253c1.132 1.97 3.734.555 3.504-1.004-.271-1.804-3.525-1.539-3.504 1.004zm54.856-28.029c.386 5.024-.457 11.037-3.757 11.33-5.386.48-2.577-5.478-2.505-9.064.198-10.398-8.637-17.62-17.29-17.62-2.453 0-8.148 1.674-7.27-3.527.383-2.206 2.204-2.257 4.073-2.495l.187-.024c14.554-1.948 25.54 8.113 26.562 21.4zm-12.544.11c.529 3.792-.57 7.09-2.77 7.234-3.67.237-2.298-2.489-2.52-5.736-.14-2-1.813-4.31-3.275-4.977-2.873-1.33-7.304.967-7.304-2.993 0-2.788 2.318-2.656 3.799-2.728l.232-.014c6.38-.493 11.093 3.86 11.838 9.215z"/>
</svg>
