<svg xmlns="http://www.w3.org/2000/svg" width="96" height="96" viewBox="0 0 96 96">
    <path d="M31.304 84.563c33.964 0 52.537-28.13 52.537-52.524 0-.8-.016-1.595-.053-2.387 3.605-2.605 6.739-5.857 9.212-9.558-3.309 1.47-6.87 2.46-10.604 2.906 3.812-2.285 6.739-5.9 8.119-10.21-3.569 2.114-7.519 3.652-11.724 4.48-3.37-3.588-8.169-5.832-13.479-5.832-10.198 0-18.467 8.268-18.467 18.459 0 1.449.162 2.857.479 4.209-15.346-.773-28.954-8.119-38.06-19.288-1.588 2.728-2.501 5.897-2.501 9.278 0 6.405 3.26 12.058 8.217 15.366-3.029-.093-5.875-.925-8.363-2.309-.004.078-.004.154-.004.236 0 8.941 6.365 16.404 14.814 18.097-1.551.422-3.183.65-4.868.65-1.189 0-2.347-.117-3.471-.334 2.351 7.334 9.167 12.673 17.25 12.822-6.321 4.952-14.282 7.903-22.934 7.903-1.49 0-2.959-.085-4.404-.257 8.172 5.237 17.875 8.293 28.304 8.293"/>
</svg>
