<svg width="40" height="40" viewBox="0 0 40 40" fill="none" xmlns="http://www.w3.org/2000/svg">
<path fill-rule="evenodd" clip-rule="evenodd" d="M20 40C31.0457 40 40 31.0457 40 20C40 8.9543 31.0457 0 20 0C8.9543 0 0 8.9543 0 20C0 31.0457 8.9543 40 20 40ZM20 37.6C29.7202 37.6 37.6 29.7202 37.6 20C37.6 10.2798 29.7202 2.4 20 2.4C10.2798 2.4 2.4 10.2798 2.4 20C2.4 29.7202 10.2798 37.6 20 37.6ZM19.7458 16.4434L19.784 17.1009L19.1481 17.0204C16.8336 16.7118 14.8116 15.6652 13.0948 13.9076L12.2555 13.0355L12.0393 13.6795C11.5815 15.1151 11.874 16.6313 12.8278 17.651C13.3365 18.2145 13.222 18.295 12.3445 17.9596C12.0393 17.8522 11.7723 17.7717 11.7468 17.812C11.6578 17.9059 11.963 19.1269 12.2046 19.6099C12.5353 20.2808 13.2093 20.9382 13.9469 21.3273L14.57 21.6359L13.8324 21.6493C13.1203 21.6493 13.0948 21.6627 13.1711 21.9445C13.4255 22.8166 14.4301 23.7424 15.5492 24.1449L16.3377 24.4267L15.6509 24.856C14.6336 25.4732 13.4382 25.8221 12.2428 25.8489C11.6705 25.8623 11.2 25.916 11.2 25.9562C11.2 26.0904 12.7515 26.8418 13.6544 27.1369C16.3631 28.0091 19.5805 27.6334 21.9967 26.1441C23.7135 25.0841 25.4303 22.9776 26.2315 20.9382C26.6638 19.8514 27.0962 17.8657 27.0962 16.913C27.0962 16.2958 27.1344 16.2153 27.8465 15.4774C28.2662 15.048 28.6604 14.5784 28.7367 14.4443C28.8639 14.1893 28.8512 14.1893 28.2026 14.4174C27.1216 14.82 26.969 14.7663 27.5032 14.1625C27.8974 13.7332 28.3679 12.955 28.3679 12.7269C28.3679 12.6866 28.1772 12.7537 27.961 12.8745C27.7321 13.0086 27.2234 13.2099 26.8419 13.3306L26.1552 13.5587L25.532 13.116C25.1887 12.8745 24.7054 12.6061 24.4511 12.5256C23.8025 12.3378 22.8106 12.3646 22.2256 12.5793C20.636 13.1831 19.6314 14.7395 19.7458 16.4434C19.7458 16.4434 19.6314 14.7395 19.7458 16.4434Z" fill="black"/>
</svg>
