<svg width="40" height="40" viewBox="0 0 40 40" fill="none" xmlns="http://www.w3.org/2000/svg">
<path fill-rule="evenodd" clip-rule="evenodd" d="M20 40C31.0457 40 40 31.0457 40 20C40 8.9543 31.0457 0 20 0C8.9543 0 0 8.9543 0 20C0 31.0457 8.9543 40 20 40ZM20 37.6C29.7202 37.6 37.6 29.7202 37.6 20C37.6 10.2798 29.7202 2.4 20 2.4C10.2798 2.4 2.4 10.2798 2.4 20C2.4 29.7202 10.2798 37.6 20 37.6ZM21.4516 28.8V19.999H24.055L24.4 16.9661H21.4516L21.456 15.4481C21.456 14.6571 21.5366 14.2332 22.754 14.2332H24.3816V11.2H21.7778C18.6503 11.2 17.5495 12.6713 17.5495 15.1455V16.9664H15.6V19.9993H17.5495V28.8H21.4516Z" fill="black"/>
</svg>
