<svg xmlns="http://www.w3.org/2000/svg" width="96" height="96" viewBox="0 0 96 96">
    <path d="M91 12c1.866 0 3.395 1.466 3.495 3.308l.005.192v65c0 1.866-1.466 3.395-3.308 3.495L91 84H5c-1.866 0-3.395-1.466-3.495-3.308L1.5 80.5v-65c0-1.866 1.466-3.395 3.308-3.495L5 12h86zM80.206 26.573c-1.117-1.008-2.814-1.032-3.96-.054l-.146.133L48 53.81 19.936 26.689l-.146-.133c-1.145-.977-2.843-.953-3.958.054l-.142.137-.133.146c-.98 1.144-.955 2.843.052 3.96l.137.142 29.445 28.462.183.167c.685.588 1.532.906 2.391.955l.235.007.235-.007c.86-.049 1.707-.368 2.393-.956l.183-.167L80.29 30.957l.137-.142c1.008-1.117 1.032-2.815.054-3.959l-.133-.146-.142-.137z"/>
</svg>
