<svg xmlns="http://www.w3.org/2000/svg" width="96" height="96" viewBox="0 0 96 96">
    <path d="M46.415 15.003h3.174c6.211.033 28.834.27 35.138 1.965 4.045 1.085 7.23 4.279 8.31 8.336 1.662 6.217 1.918 18.146 1.958 21.682l.003 1.712c-.028 3.084-.247 15.579-1.96 21.994-1.081 4.056-4.266 7.25-8.311 8.336-6.89 1.851-33.277 1.962-36.419 1.97l-3.137-.014c-7.542-.058-27.956-.36-33.894-1.956-4.044-1.085-7.23-4.28-8.311-8.336-1.849-6.921-1.957-20.917-1.964-22.54l.01-1.364c.046-3.763.323-15.378 1.954-21.484 1.08-4.057 4.267-7.251 8.31-8.336 6.305-1.695 28.928-1.932 35.139-1.965zm-8.262 18.66V62.33l25.28-14.332-25.28-14.334z"/>
</svg>
