<svg width="40" height="40" viewBox="0 0 40 40" fill="none" xmlns="http://www.w3.org/2000/svg">
<path fill-rule="evenodd" clip-rule="evenodd" d="M40 20C40 8.9543 31.0457 0 20 0C8.9543 0 0 8.9543 0 20C0 31.0457 8.9543 40 20 40C31.0457 40 40 31.0457 40 20ZM37.6 20C37.6 10.2798 29.7202 2.4 20 2.4C10.2798 2.4 2.4 10.2798 2.4 20C2.4 29.7202 10.2798 37.6 20 37.6C29.7202 37.6 37.6 29.7202 37.6 20ZM29.4147 24.6124C29.1759 25.6502 28.327 26.4153 27.3055 26.5295C24.886 26.7998 22.4371 26.8012 19.9988 26.7998C17.5606 26.8012 15.1116 26.7998 12.6922 26.5295C11.6706 26.4153 10.8221 25.6502 10.5835 24.6124C10.2438 23.1344 10.2438 21.5216 10.2438 20.0002C10.2438 18.4786 10.2478 16.8656 10.5874 15.3876C10.8262 14.3498 11.6746 13.5844 12.696 13.4705C15.1156 13.2002 17.5644 13.1988 20.0028 13.2002C22.4409 13.1988 24.89 13.2002 27.3093 13.4705C28.331 13.5844 29.1799 14.3498 29.4185 15.3876C29.7582 16.8656 29.7562 18.4786 29.7562 20.0002C29.7562 21.5216 29.7542 23.1344 29.4147 24.6124ZM18.2438 16.4L23.6438 19.5177L18.2438 22.6354V16.4Z" fill="black"/>
</svg>
