<svg xmlns="http://www.w3.org/2000/svg" width="96" height="96" viewBox="0 0 96 96">
    <g fill="none" fill-rule="evenodd">
        <path d="M0 0H96V96H0z"/>
        <path fill="#000" fill-rule="nonzero" d="M65.598 36.823c14.901 0 26.982 10.04 26.982 22.45 0 6.734-3.635 12.817-9.282 16.836-.498.419-.73.897-.73 1.343l.006.282c.01.237.037.357.077.534l.186.791.308 1.23.35 1.333.317 1.155.077.255c.036.13.063.263.057.416.01.462-.39.864-.863.864-.177 0-.314-.046-.499-.138l-.149-.078-5.828-3.454-.283-.146c-.34-.17-.72-.312-1.142-.23l-.408.082-.13.028-.196.05c-2.798.812-5.771 1.25-8.85 1.296-14.901-.045-26.982-10.086-26.982-22.45 0-12.408 12.08-22.449 26.982-22.449zM35.378 12c16.13 0 29.51 9.832 31.947 22.665-.583-.005-1.167-.023-1.727 0-16.332-.023-29.545 10.967-29.572 24.607.027 2.2.411 4.411 1.08 6.476-.555.061-1.147.077-1.728 0-3.708.077-7.274-.45-10.577-1.295-.379-.092-.95-.198-1.29-.198-.3 0-.725.108-1.129.318l-.17.096-7.124 4.101c-.24.128-.432.216-.648.216-.615 0-1.097-.482-1.079-1.08-.015-.219.082-.422.167-.692l.049-.17c.09-.36.721-3.049 1.295-5.397.085-.35.129-.615.129-.862 0-.715-.27-1.14-.776-1.513C7.359 54.321 3 47.022 3 38.982 3 24.05 17.49 12 35.378 12zm21.05 36.48c-1.803 0-3.35 1.546-3.35 3.349 0 2.012 1.547 3.558 3.35 3.558 2.013 0 3.558-1.546 3.558-3.558 0-1.803-1.545-3.35-3.558-3.35zm17.916 0c-1.803 0-3.35 1.546-3.35 3.349 0 2.012 1.547 3.558 3.35 3.558 2.013 0 3.558-1.546 3.558-3.558 0-1.803-1.545-3.35-3.558-3.35zM24.37 26.03c-2.385 0-4.317 1.934-4.317 4.318 0 2.385 1.932 4.317 4.317 4.317 2.384 0 4.317-1.932 4.317-4.317 0-2.384-1.933-4.317-4.317-4.317zm21.585 0c-2.384 0-4.317 1.934-4.317 4.318 0 2.385 1.933 4.317 4.317 4.317 2.384 0 4.317-1.932 4.317-4.317 0-2.384-1.933-4.317-4.317-4.317z"/>
    </g>
</svg>
