<svg xmlns="http://www.w3.org/2000/svg" width="96" height="96" viewBox="0 0 96 96">
    <path d="M89.232 40.164c.621 2.675.908 5.255.908 8.791 0 12.884-4.534 23.777-12.42 31.27l-.384.36C70.216 87.177 60.47 91 48.86 91c-16.646 0-30.998-9.455-38.147-23.27l-.219-.428 13.904-10.798c3.44 10.368 13.091 17.87 24.462 17.87 6.214 0 10.988-1.667 14.584-4.08l.323-.221c5.606-3.925 8.197-9.721 8.756-13.683l.035-.268H48.86V40.164h40.372zM10.447 28.697L24.35 39.495c-.86 2.676-1.385 5.542-1.385 8.505 0 2.765.457 5.446 1.256 7.967l.177.537-13.951 10.798C7.533 61.473 5.86 54.927 5.86 48c0-6.697 1.563-13.037 4.3-18.718l.287-.585zM48.86 5c11.407 0 20.968 4.104 28.368 10.818l.394.362-12.135 11.848c-3.106-2.914-8.553-6.402-16.627-6.402-11.235 0-20.792 7.324-24.383 17.5l-.127.37-13.903-10.799C17.518 14.65 32.042 5 48.86 5z"/>
</svg>
