<svg xmlns="http://www.w3.org/2000/svg" width="96" height="96" viewBox="0 0 96 96">
    <path d="M83.001 8c2.688 0 4.88 2.122 4.994 4.782L88 13v70.002c0 2.688-2.122 4.88-4.782 4.994L83 88H12.998c-2.687 0-4.88-2.122-4.993-4.782L8 83V12.999c0-2.688 2.122-4.88 4.781-4.994L12.998 8h70.003zM32.188 37.804H19.833l.15 38.5 12.205-.155V37.804zm40.639 3.05c-2.686-3.016-7.337-4.54-12.14-3.985-4.253.495-7.856 2.544-9.812 5.538l.006-1.879.025-2.724H38.994l.15 38.5 12.205-.155.001-21.494c.012-.346.106-1.882.849-3.4 1.112-2.272 3.089-3.438 5.876-3.465 1.597.006 2.91.472 3.903 1.451 1.748 1.726 2.02 4.508 2.063 5.282l.008.205.049 21.575L76.3 76.15l.015-1.654c.013-1.988.015-4.814.013-7.783l-.038-14.555c-.025-1.366-.314-7.766-3.463-11.303zM25.924 19.212c-3.793 0-6.869 3.075-6.869 6.868 0 3.794 3.076 6.87 6.87 6.87 3.792 0 6.868-3.076 6.868-6.87 0-3.793-3.076-6.868-6.869-6.868z"/>
</svg>
