<svg xmlns="http://www.w3.org/2000/svg" width="96" height="96" viewBox="0 0 96 96">
    <path d="M77.714 8.19c3.646.744 6.536 2.886 8.272 6.12l.469.89c.806 1.467.931 1.708.973 15.38l.045 31.404c-.005 9.639-.05 14.085-.142 14.836-.601 4.918-3.935 8.755-8.753 10.108l-.498.129c-1.038.241-2.502.277-20.57.277l-29.523-.02c-9.265-.028-10.165-.097-10.906-.292-1.487-.391-2.77-.967-3.954-1.774-1-.68-2.46-2.088-3.015-2.905-.626-.922-1.339-2.45-1.695-3.612l-.127-.462c-.2-.822-.258-1.985-.278-12.694l.003-39.768c.028-7.516.104-8.057.305-8.84 1.123-4.389 4.602-7.729 9.088-8.725 1.29-.287 58.915-.337 60.306-.053zM47.537 23.15l-3.97-.052c-6.574-.057-8.217.137-10.664 1.112-4.667 1.859-8.052 5.727-9.376 10.697l-.093.366-.063.303c-.146.829-.202 2.31-.244 7.03l-.044 6.742c-.037 8.494.074 10.206.66 12.14l.058.189c.575 1.825 1.156 2.943 2.352 4.53 2.278 3.024 5.693 5.208 9.107 5.825 1.625.293 21.67.367 23.722.087 3.57-.487 6.368-1.918 8.993-4.6 1.799-1.838 2.96-3.819 3.738-6.392l.176-.62c.196-.748.267-1.397.311-4.024l.054-5.076c.034-4.604-.006-6.796-.132-7.372-.194-.879-.743-1.695-1.369-2.036-.171-.093-1.166-.208-2.31-.274l-1.352-.067c-1.312-.073-1.618-.153-2.15-.457l-.08-.047c-1.057-.62-1.381-1.286-1.41-3.003l-.002-.24c-.006-3.626-1.515-6.992-4.496-10.03-2.124-2.164-4.493-3.629-7.197-4.45l-.156-.04c-.55-.127-1.598-.192-4.063-.24zm-3.512 30.674l8.502-.003c4.965.024 5.084.163 5.826.856 1.274 1.19 1.057 3.276-.394 4.226l-.154.094-1.632.266-10.728.12c-5.686.037-7.41-.088-7.758-.24-.784-.34-1.513-1.29-1.64-2.13-.111-.748.232-1.757.78-2.342l.187-.178c.628-.55 1.15-.648 7.01-.67zm-2.621-17.675l3.877-.001c2.819.01 3.03.068 3.618.365 1.023.517 1.467 1.246 1.467 2.405 0 .978-.363 1.683-1.169 2.252l-.18.12-.065.04c-.47.278-.943.298-5.453.324H41.51c-1.933-.012-3.333-.061-3.595-.134-1.77-.488-2.465-2.965-1.283-4.35l.117-.126.207-.202c.626-.576 1.168-.677 4.447-.693z"/>
</svg>
