<svg width="204" height="44" viewBox="0 0 204 44" fill="none" xmlns="http://www.w3.org/2000/svg">
<path d="M195.308 0.791504L179.828 16.0842V0.791504H173.678V43.3416H179.828V25.488L195.338 43.3416H204L184.098 20.4229L203.971 0.791504H195.308Z" fill="white"/>
<path d="M55.0829 0.791504H48.9277V43.3308H70.9314V37.3172H55.0829V0.791504Z" fill="white"/>
<path d="M74.2441 43.3308H96.28V37.3172H80.3967V23.2658H95.872V17.2549H80.3967V6.80505H96.28V0.791504H74.2441V43.3308Z" fill="white"/>
<path d="M123.899 6.18175C121.697 4.10587 119.231 2.65058 116.565 1.85383C114.361 1.14923 111.604 0.791504 108.383 0.791504H99.6025V43.3308H108.383C111.65 43.3308 114.46 42.9541 116.734 42.2143C119.435 41.3389 121.923 39.8105 124.127 37.6614C128.419 33.4717 130.596 28.2387 130.596 22.1113C130.593 15.7319 128.341 10.3714 123.899 6.18175ZM119.902 33.1682C117.153 35.9216 113.258 37.32 108.329 37.32H105.758V6.80505H108.329C113.051 6.80505 116.812 8.06522 119.502 10.5476C122.779 13.5666 124.444 17.4582 124.444 22.114C124.444 26.4229 122.913 30.1438 119.902 33.1682Z" fill="white"/>
<path d="M43.5321 22C43.5321 9.86992 33.7691 0 21.7647 0C9.76567 0 0 9.86992 0 22C0 34.1328 9.76567 44 21.7647 44C26.4784 44 31.0848 42.4336 34.8429 39.5772L38.5661 43.3306H47.0245L39.0815 35.3144C41.9564 31.4986 43.5321 26.8076 43.5321 22ZM34.7919 30.9892L26.4704 22.6016H17.9905L30.5426 35.2439C27.9387 37.019 24.9296 37.9512 21.7647 37.9512C13.0647 37.9512 5.9861 30.7967 5.9861 22.0027C5.9861 13.2087 13.0647 6.0542 21.7647 6.0542C30.4647 6.0542 37.5433 13.2114 37.5433 22.0027C37.5433 25.252 36.5958 28.336 34.7919 30.9892Z" fill="white"/>
<path d="M164.476 20.4118C166.857 18.2736 168.357 15.1598 168.357 11.6964C168.357 5.26551 163.182 0.0351562 156.823 0.0351562C150.461 0.0351562 145.285 5.26551 145.285 11.6964C145.285 15.1598 146.789 18.2736 149.167 20.4118C145.986 22.7885 143.919 26.6043 143.919 30.8997C143.919 38.0894 149.706 43.9403 156.82 43.9403C163.933 43.9403 169.721 38.0894 169.721 30.8997C169.721 26.6043 167.657 22.7885 164.476 20.4118ZM156.82 6.25467C159.786 6.25467 162.202 8.69369 162.202 11.6964C162.202 14.6964 159.786 17.1381 156.82 17.1381C153.851 17.1381 151.435 14.6964 151.435 11.6964C151.438 8.6964 153.854 6.25467 156.82 6.25467ZM156.82 37.7208C153.099 37.7208 150.071 34.6612 150.071 30.9024C150.071 27.1408 153.097 24.0839 156.82 24.0839C160.54 24.0839 163.566 27.1436 163.566 30.9024C163.566 34.6585 160.543 37.7208 156.82 37.7208Z" fill="white"/>
</svg>
